<svg width="48" height="48" viewBox="0 0 48 48" fill="none" xmlns="http://www.w3.org/2000/svg">
<path d="M30.7543 7.01701C30.682 6.93627 28.0789 7.04889 25.8137 9.5075C23.5484 11.964 23.8969 14.7817 23.9479 14.854C23.9989 14.9262 27.1779 15.0388 29.2073 12.1807C31.2367 9.32263 30.8265 7.09989 30.7543 7.01701ZM37.7965 31.9495C37.6945 31.7455 32.8559 29.3273 33.3064 24.6778C33.7569 20.0283 36.8658 18.7512 36.9146 18.6131C36.9635 18.475 35.646 16.9343 34.2499 16.1545C33.2246 15.6052 32.0902 15.2902 30.9285 15.2322C30.699 15.2258 29.9022 15.0303 28.2638 15.4787C27.1843 15.7741 24.7512 16.7303 24.0818 16.7686C23.4103 16.8068 21.4128 15.6593 19.2645 15.3555C17.8896 15.0898 16.4319 15.6338 15.3885 16.0525C14.3472 16.469 12.3668 17.6547 10.9813 20.8061C9.59577 23.9553 10.3204 28.9448 10.8389 30.496C11.3574 32.0473 12.167 34.5845 13.544 36.4375C14.768 38.5285 16.3915 39.9798 17.0694 40.4728C17.7472 40.9658 19.6597 41.2931 20.9857 40.6152C22.0525 39.9607 23.9777 39.5846 24.7384 39.6122C25.4971 39.6398 26.9931 39.9395 28.5252 40.7576C29.7385 41.1762 30.886 41.002 32.0357 40.5345C33.1853 40.0648 34.8491 38.2841 36.7914 34.6737C37.528 32.995 37.8631 32.0869 37.7965 31.9495Z" fill="black"/>
<path d="M30.7543 7.01701C30.682 6.93627 28.0789 7.04889 25.8137 9.5075C23.5484 11.964 23.8969 14.7817 23.9479 14.854C23.9989 14.9262 27.1779 15.0388 29.2073 12.1807C31.2367 9.32263 30.8265 7.09989 30.7543 7.01701ZM37.7965 31.9495C37.6945 31.7455 32.8559 29.3273 33.3064 24.6778C33.7569 20.0283 36.8658 18.7512 36.9146 18.6131C36.9635 18.475 35.646 16.9343 34.2499 16.1545C33.2246 15.6052 32.0902 15.2902 30.9285 15.2322C30.699 15.2258 29.9022 15.0303 28.2638 15.4787C27.1843 15.7741 24.7512 16.7303 24.0818 16.7686C23.4103 16.8068 21.4128 15.6593 19.2645 15.3555C17.8896 15.0898 16.4319 15.6338 15.3885 16.0525C14.3472 16.469 12.3668 17.6547 10.9813 20.8061C9.59577 23.9553 10.3204 28.9448 10.8389 30.496C11.3574 32.0473 12.167 34.5845 13.544 36.4375C14.768 38.5285 16.3915 39.9798 17.0694 40.4728C17.7472 40.9658 19.6597 41.2931 20.9857 40.6152C22.0525 39.9607 23.9777 39.5846 24.7384 39.6122C25.4971 39.6398 26.9931 39.9395 28.5252 40.7576C29.7385 41.1762 30.886 41.002 32.0357 40.5345C33.1853 40.0648 34.8491 38.2841 36.7914 34.6737C37.528 32.995 37.8631 32.0869 37.7965 31.9495Z" fill="black"/>
</svg>
