<svg width="20" height="20" viewBox="0 0 20 20" fill="none" xmlns="http://www.w3.org/2000/svg">
<path d="M9.99999 11.6667C11.8383 11.6667 13.3333 10.1717 13.3333 8.33333C13.3333 6.495 11.8383 5 9.99999 5C8.16166 5 6.66666 6.495 6.66666 8.33333C6.66666 10.1717 8.16166 11.6667 9.99999 11.6667ZM9.99999 6.66667C10.9192 6.66667 11.6667 7.41417 11.6667 8.33333C11.6667 9.2525 10.9192 10 9.99999 10C9.08082 10 8.33332 9.2525 8.33332 8.33333C8.33332 7.41417 9.08082 6.66667 9.99999 6.66667Z" fill="#212121" fill-opacity="0.6"/>
<path d="M9.51666 18.1783C9.6577 18.2791 9.82668 18.3332 9.99999 18.3332C10.1733 18.3332 10.3423 18.2791 10.4833 18.1783C10.7367 17.9992 16.6908 13.7 16.6667 8.33333C16.6667 4.6575 13.6758 1.66667 9.99999 1.66667C6.32416 1.66667 3.33333 4.6575 3.33333 8.32917C3.30916 13.7 9.26333 17.9992 9.51666 18.1783ZM9.99999 3.33333C12.7575 3.33333 15 5.57583 15 8.3375C15.0175 12.0358 11.3433 15.3567 9.99999 16.4458C8.65749 15.3558 4.98249 12.0342 4.99999 8.33333C4.99999 5.57583 7.24249 3.33333 9.99999 3.33333Z" fill="#212121" fill-opacity="0.6"/>
</svg>
