<svg width="48" height="48" viewBox="0 0 48 48" fill="none" xmlns="http://www.w3.org/2000/svg">
<path d="M40.6693 20.6706H39.3V20.6H24V27.4H33.6076C32.2059 31.3584 28.4396 34.2 24 34.2C18.3671 34.2 13.8 29.6329 13.8 24C13.8 18.3671 18.3671 13.8 24 13.8C26.6002 13.8 28.9657 14.7809 30.7669 16.3832L35.5753 11.5747C32.5391 8.74505 28.4778 7 24 7C14.6118 7 7 14.6118 7 24C7 33.3883 14.6118 41 24 41C33.3883 41 41 33.3883 41 24C41 22.8602 40.8827 21.7475 40.6693 20.6706Z" fill="#FFC107"/>
<path d="M8.95898 16.0873L14.5443 20.1835C16.0556 16.4418 19.7157 13.8 23.9989 13.8C26.599 13.8 28.9646 14.7809 30.7657 16.3832L35.5742 11.5747C32.538 8.74505 28.4767 7 23.9989 7C17.4692 7 11.8065 10.6865 8.95898 16.0873Z" fill="#FF3D00"/>
<path d="M24.0003 41C28.3914 41 32.3813 39.3195 35.3979 36.5868L30.1364 32.1345C28.3723 33.4761 26.2166 34.2017 24.0003 34.2C19.5786 34.2 15.8241 31.3805 14.4097 27.4459L8.86603 31.7171C11.6795 37.2226 17.3932 41 24.0003 41Z" fill="#4CAF50"/>
<path d="M40.6693 20.6706H39.3V20.6H24V27.4H33.6076C32.9371 29.284 31.7294 30.9302 30.1336 32.1354L30.1361 32.1337L35.3977 36.586C35.0254 36.9243 41 32.5 41 24C41 22.8602 40.8827 21.7475 40.6693 20.6706Z" fill="#1976D2"/>
</svg>
