<svg width="48" height="48" viewBox="0 0 48 48" fill="none" xmlns="http://www.w3.org/2000/svg">
<path d="M13.6118 29.8104V30.7549H7.001V29.8104H13.6118ZM23.9428 29.8104C23.2796 30.4201 22.411 30.7573 21.5102 30.7548L14.5561 30.7455V29.8104H23.9428ZM33.7722 29.8104L33.4424 30.7548L33.1156 29.8104H33.7722ZM30.6108 29.8104V30.7549H25.8888V29.8104H30.6108ZM40.999 29.8104V30.7549H36.2771V29.8104H40.999ZM25.0124 28.0076C24.9314 28.3389 24.8034 28.6569 24.6325 28.952H14.5561V28.0076H25.0124ZM34.405 28.0076L34.0736 28.9521H32.8142L32.4827 28.0076H34.405ZM30.6108 28.0076V28.952H25.8888V28.0076H30.6108ZM40.999 28.0076V28.952H36.2771V28.0076H40.999ZM13.6118 28.0076V28.952H7.001V28.0076H13.6118ZM11.7229 26.2046V27.149H8.88975V26.2046H11.7229ZM19.278 26.2046V27.149H16.4448V26.2046H19.278ZM24.9897 26.2046C25.0734 26.5124 25.1159 26.83 25.116 27.149H21.9395V26.2046H24.9897ZM35.038 26.2046L34.7064 27.149H32.1812L31.8496 26.2046H35.038ZM30.6107 26.2046V27.149H27.7775V26.2046H30.6107ZM39.1102 26.2046V27.149H36.277V26.2046H39.1102ZM11.7229 24.4017V25.3461H8.88975V24.4017H11.7229ZM30.6107 24.4017V25.3461H27.7775V24.4017H30.6107ZM39.1102 24.4017V25.3461H36.277V24.4017H39.1102ZM23.8436 24.4017C24.1581 24.6692 24.4245 24.9886 24.6314 25.346H16.4449V24.4016L23.8436 24.4017ZM35.6709 24.4017L35.3395 25.3461H31.5482L31.2167 24.4016L35.6709 24.4017ZM33.1783 22.5988L33.4438 23.3622L33.7092 22.5988H39.1101V23.5432H36.2771V22.6755L35.9723 23.5432H30.9154L30.6107 22.6754V23.5432H27.7776V22.5988H33.1783ZM16.4448 22.5988H24.6315C24.4247 22.9562 24.1582 23.2756 23.8437 23.5432H16.4449L16.4448 22.5988ZM11.7229 22.5988V23.5432H8.88975V22.5987L11.7229 22.5988ZM11.7229 20.7959V21.7402H8.88975V20.7959H11.7229ZM19.278 20.7959V21.7402H16.4448V20.7959H19.278ZM25.1161 20.7959C25.1159 21.1148 25.0734 21.4324 24.9897 21.7402H21.9395V20.7959H25.1161ZM32.5514 20.7959L32.8798 21.7402H27.7776V20.7959H32.5514ZM39.1101 20.7959V21.7402H34.0079L34.3363 20.7959H39.1101ZM13.6116 18.9929V19.9373H7.001V18.9928L13.6116 18.9929ZM24.6324 18.9929C24.8034 19.288 24.9313 19.606 25.0124 19.9373H14.556V18.9929H24.6324ZM40.9989 18.9929V19.9373H34.6348L34.9632 18.9929H40.9989ZM31.9244 18.9929L32.2528 19.9373H25.8887V18.9929H31.9244ZM13.6118 17.1901V18.1344H7.001V17.19L13.6118 17.1901ZM21.5102 17.19C22.4108 17.1888 23.2789 17.5258 23.9428 18.1344H14.5561V17.19H21.5102ZM40.999 17.19V18.1344H35.2618L35.5903 17.1901L40.999 17.19ZM31.2976 17.19L31.626 18.1344H25.8888V17.1901L31.2976 17.19Z" fill="black"/>
</svg>
