<svg width="48" height="48" viewBox="0 0 48 48" fill="none" xmlns="http://www.w3.org/2000/svg">
<path d="M26.6929 7.02253L26.6797 14.5363L26.6664 22.0501L26.0483 20.3059L26.0471 20.3026L25.2483 37.0303C26.0338 39.2484 26.4545 40.4324 26.4592 40.4371C26.4653 40.4434 26.913 40.4704 27.4538 40.4972C29.0925 40.5785 31.1233 40.7526 32.6638 40.9442C33.0205 40.9885 33.3274 41.0112 33.346 40.9945C33.3644 40.9781 33.3744 33.3276 33.3683 23.9935L33.357 7.02253H30.025H26.6929ZM14.6394 7V23.9883C14.6394 33.3319 14.6486 40.9857 14.6597 40.9969C14.6709 41.0081 15.2495 40.9534 15.9456 40.8754C16.6416 40.7975 17.6037 40.7005 18.0834 40.66C18.8191 40.5979 21.0156 40.4567 21.2698 40.4551C21.3438 40.4547 21.3485 40.0732 21.3593 33.2598L21.3707 26.0647L21.9021 27.5684L22.0901 28.0998L22.8887 11.3761L22.6142 10.6005C22.2044 9.44121 21.7942 8.28205 21.3836 7.12301L21.3395 7H17.9895H14.6394Z" fill="#B1060F"/>
<path d="M14.6394 7V16.536L21.357 34.3555C21.3577 33.9471 21.3585 33.7266 21.3593 33.2598L21.3707 26.0647L21.9021 27.5684C24.8605 35.9395 26.4498 40.4277 26.4592 40.4371C26.4653 40.4434 26.913 40.4704 27.4538 40.4972C29.0925 40.5785 31.1233 40.7526 32.6638 40.9442C33.0205 40.9885 33.3274 41.0112 33.346 40.9945C33.3585 40.9832 33.367 37.2319 33.3691 31.94L26.6829 12.7173L26.6797 14.5363L26.6664 22.0501L26.0483 20.3059C25.4442 18.6016 25.0409 17.4618 22.6142 10.6005C22.2044 9.44121 21.7942 8.28205 21.3836 7.12301L21.3395 7H17.9895H14.6394Z" fill="url(#paint0_radial_1_193)"/>
<path d="M14.6394 7L21.3705 26.0733V26.0647L21.9019 27.5684C24.8603 35.9395 26.4496 40.4277 26.459 40.4371C26.4651 40.4434 26.9128 40.4704 27.4536 40.4972C29.0923 40.5785 31.1231 40.7526 32.6636 40.9442C33.0185 40.9883 33.3237 41.0108 33.3452 40.9947L26.666 22.0468V22.0501L26.0479 20.3059C25.4438 18.6016 25.0405 17.4618 22.6139 10.6005C21.9612 8.75539 21.4075 7.19078 21.3832 7.12301L21.3391 7H17.9893H14.6394Z" fill="#E50914"/>
<path d="M26.6929 7.02253L26.6797 14.5363L26.6664 22.0501L26.0483 20.3059L26.0471 20.3026L25.2483 37.0303C26.0338 39.2484 26.4545 40.4324 26.4592 40.4371C26.4653 40.4434 26.913 40.4704 27.4538 40.4972C29.0925 40.5785 31.1233 40.7526 32.6638 40.9442C33.0205 40.9885 33.3274 41.0112 33.346 40.9945C33.3644 40.9781 33.3744 33.3276 33.3683 23.9935L33.357 7.02253H30.025H26.6929ZM14.6394 7V23.9883C14.6394 33.3319 14.6486 40.9857 14.6597 40.9969C14.6709 41.0081 15.2495 40.9534 15.9456 40.8754C16.6416 40.7975 17.6037 40.7005 18.0834 40.66C18.8191 40.5979 21.0156 40.4567 21.2698 40.4551C21.3438 40.4547 21.3485 40.0732 21.3593 33.2598L21.3707 26.0647L21.9021 27.5684L22.0901 28.0998L22.8887 11.3761L22.6142 10.6005C22.2044 9.44121 21.7942 8.28205 21.3836 7.12301L21.3395 7H17.9895H14.6394Z" fill="#B1060F"/>
<path d="M14.6394 7V16.536L21.357 34.3555C21.3577 33.9471 21.3585 33.7266 21.3593 33.2598L21.3707 26.0647L21.9021 27.5684C24.8605 35.9395 26.4498 40.4277 26.4592 40.4371C26.4653 40.4434 26.913 40.4704 27.4538 40.4972C29.0925 40.5785 31.1233 40.7526 32.6638 40.9442C33.0205 40.9885 33.3274 41.0112 33.346 40.9945C33.3585 40.9832 33.367 37.2319 33.3691 31.94L26.6829 12.7173L26.6797 14.5363L26.6664 22.0501L26.0483 20.3059C25.4442 18.6016 25.0409 17.4618 22.6142 10.6005C22.2044 9.44121 21.7942 8.28205 21.3836 7.12301L21.3395 7H17.9895H14.6394Z" fill="url(#paint1_radial_1_193)"/>
<path d="M14.6394 7L21.3705 26.0733V26.0647L21.9019 27.5684C24.8603 35.9395 26.4496 40.4277 26.459 40.4371C26.4651 40.4434 26.9128 40.4704 27.4536 40.4972C29.0923 40.5785 31.1231 40.7526 32.6636 40.9442C33.0185 40.9883 33.3237 41.0108 33.3452 40.9947L26.666 22.0468V22.0501L26.0479 20.3059C25.4438 18.6016 25.0405 17.4618 22.6139 10.6005C21.9612 8.75539 21.4075 7.19078 21.3832 7.12301L21.3391 7H17.9893H14.6394Z" fill="#E50914"/>
<defs>
<radialGradient id="paint0_radial_1_193" cx="0" cy="0" r="1" gradientUnits="userSpaceOnUse" gradientTransform="translate(920.035 929.037) scale(1319.29 1319.3)">
<stop/>
<stop offset="1" stop-opacity="0"/>
</radialGradient>
<radialGradient id="paint1_radial_1_193" cx="0" cy="0" r="1" gradientUnits="userSpaceOnUse" gradientTransform="translate(920.035 929.037) scale(1319.29 1319.3)">
<stop/>
<stop offset="1" stop-opacity="0"/>
</radialGradient>
</defs>
</svg>
