<svg width="48" height="48" viewBox="0 0 48 48" fill="none" xmlns="http://www.w3.org/2000/svg">
<path d="M41 24C41 14.6112 33.3888 7 24 7C14.6112 7 7 14.6112 7 24C7 32.4851 13.2167 39.5182 21.3438 40.7935V28.9141H17.0273V24H21.3438V20.2547C21.3438 15.9941 23.8818 13.6406 27.765 13.6406C29.6249 13.6406 31.5703 13.9727 31.5703 13.9727V18.1562H29.4267C27.3149 18.1562 26.6562 19.4667 26.6562 20.8112V24H31.3711L30.6174 28.9141H26.6562V40.7935C34.7833 39.5182 41 32.4853 41 24Z" fill="#1877F2"/>
<path d="M30.6174 28.9141L31.3711 24H26.6562V20.8112C26.6562 19.4666 27.3149 18.1562 29.4267 18.1562H31.5703V13.9727C31.5703 13.9727 29.6249 13.6406 27.7648 13.6406C23.8818 13.6406 21.3438 15.9941 21.3438 20.2547V24H17.0273V28.9141H21.3438V40.7935C22.2225 40.9312 23.1106 41.0002 24 41C24.8894 41.0003 25.7775 40.9312 26.6562 40.7935V28.9141H30.6174Z" fill="white"/>
</svg>
