<svg width="20" height="20" viewBox="0 0 20 20" fill="none" xmlns="http://www.w3.org/2000/svg">
<path fill-rule="evenodd" clip-rule="evenodd" d="M17.4367 9.79166H15.1917C14.005 9.79166 13.1242 10.6742 13.1242 11.6667C13.1242 12.6592 14.005 13.5417 15.1908 13.5417H17.4558C17.6275 13.5308 17.7017 13.415 17.7075 13.345V9.98832C17.7017 9.91832 17.6275 9.80249 17.4558 9.79249L17.4367 9.79166ZM17.375 8.54166C17.43 8.54166 17.4833 8.54166 17.5333 8.54499C18.2583 8.58916 18.9008 9.13666 18.955 9.90166C18.9583 9.95166 18.9583 10.0058 18.9583 10.0558V13.2775C18.9583 13.3275 18.9583 13.3817 18.955 13.4317C18.9008 14.1967 18.2583 14.7442 17.5325 14.7892C17.4833 14.7917 17.43 14.7917 17.3742 14.7917H15.1925C13.405 14.7917 11.875 13.435 11.875 11.6667C11.875 9.89832 13.405 8.54166 15.1917 8.54166H17.3608H17.375Z" fill="#FF60A3"/>
<path d="M15.8333 11.6667C15.8333 11.8877 15.7455 12.0997 15.5893 12.2559C15.433 12.4122 15.221 12.5 15 12.5C14.779 12.5 14.567 12.4122 14.4107 12.2559C14.2545 12.0997 14.1667 11.8877 14.1667 11.6667C14.1667 11.4457 14.2545 11.2337 14.4107 11.0774C14.567 10.9211 14.779 10.8333 15 10.8333C15.221 10.8333 15.433 10.9211 15.5893 11.0774C15.7455 11.2337 15.8333 11.4457 15.8333 11.6667Z" fill="#FF60A3"/>
<path fill-rule="evenodd" clip-rule="evenodd" d="M17.375 8.54167C17.6141 8.53264 17.852 8.57824 18.0708 8.67501C17.9817 7.33667 17.7358 6.30501 16.9658 5.53417C16.3417 4.91084 15.5508 4.63417 14.5742 4.50251L14.5392 4.49834C14.5304 4.49173 14.5216 4.48534 14.5125 4.47917L11.3992 2.41501C10.8591 2.06257 10.2282 1.87491 9.58333 1.87491C8.93847 1.87491 8.30754 2.06257 7.7675 2.41501L4.655 4.47917C4.64567 4.48532 4.6365 4.49171 4.6275 4.49834L4.5925 4.50251C3.61583 4.63417 2.825 4.91084 2.20083 5.53417C1.5775 6.15834 1.30083 6.94917 1.16917 7.92584C1.04167 8.87584 1.04167 10.0883 1.04167 11.62V11.7133C1.04167 13.245 1.04167 14.4583 1.16917 15.4075C1.30083 16.3842 1.5775 17.175 2.20083 17.7992C2.825 18.4225 3.61583 18.6992 4.5925 18.8308C5.5425 18.9583 6.755 18.9583 8.28667 18.9583H10.88C12.4117 18.9583 13.625 18.9583 14.5742 18.8308C15.5508 18.6992 16.3417 18.4225 16.9658 17.7992C17.7358 17.0283 17.9817 15.9967 18.0708 14.6575C17.9025 14.7325 17.7208 14.7775 17.5325 14.7892C17.4833 14.7917 17.43 14.7917 17.3742 14.7917H16.8067C16.7117 15.91 16.4975 16.5 16.0817 16.915C15.7292 17.2675 15.2458 17.4792 14.4075 17.5917C13.5517 17.7067 12.4225 17.7083 10.8333 17.7083H8.33333C6.74417 17.7083 5.61583 17.7067 4.75833 17.5917C3.92083 17.4792 3.4375 17.2675 3.085 16.915C2.7325 16.5625 2.52083 16.0792 2.40833 15.2408C2.29333 14.385 2.29167 13.2558 2.29167 11.6667C2.29167 10.0775 2.29333 8.94917 2.40833 8.09167C2.52083 7.25417 2.7325 6.77084 3.085 6.41834C3.4375 6.06584 3.92083 5.85417 4.75917 5.74167C5.61583 5.62667 6.74417 5.62501 8.33333 5.62501H10.8333C12.4225 5.62501 13.5517 5.62667 14.4083 5.74167C15.2458 5.85417 15.7292 6.06584 16.0817 6.41834C16.4975 6.83334 16.7117 7.42417 16.8067 8.54167H17.3608H17.375ZM8.28667 4.37501H10.88C11.3108 4.37501 11.7158 4.37501 12.0967 4.37751L10.7083 3.45667C10.0417 3.01501 9.125 3.01501 8.45833 3.45667L7.06917 4.37751C7.45083 4.37501 7.85583 4.37501 8.28583 4.37501" fill="#FF60A3"/>
<path d="M5 7.70834C4.83424 7.70834 4.67527 7.77419 4.55806 7.8914C4.44085 8.00861 4.375 8.16758 4.375 8.33334C4.375 8.4991 4.44085 8.65807 4.55806 8.77528C4.67527 8.8925 4.83424 8.95834 5 8.95834H8.33333C8.49909 8.95834 8.65806 8.8925 8.77527 8.77528C8.89249 8.65807 8.95833 8.4991 8.95833 8.33334C8.95833 8.16758 8.89249 8.00861 8.77527 7.8914C8.65806 7.77419 8.49909 7.70834 8.33333 7.70834H5Z" fill="#FF60A3"/>
<path d="M15.8333 11.6667C15.8333 11.8877 15.7455 12.0997 15.5893 12.2559C15.433 12.4122 15.221 12.5 15 12.5C14.779 12.5 14.567 12.4122 14.4107 12.2559C14.2545 12.0997 14.1667 11.8877 14.1667 11.6667C14.1667 11.4457 14.2545 11.2337 14.4107 11.0774C14.567 10.9211 14.779 10.8333 15 10.8333C15.221 10.8333 15.433 10.9211 15.5893 11.0774C15.7455 11.2337 15.8333 11.4457 15.8333 11.6667Z" fill="#FF60A3"/>
</svg>
